<svg version="1.2" xmlns="http://www.w3.org/2000/svg" viewBox="0 0 2734 664" width="2734" height="664">
	<title>LogotxtBlack (1)-svg</title>
	<defs>
		<clipPath clipPathUnits="userSpaceOnUse" id="cp1">
			<path d="m-892-572h4646v1800h-4646z"/>
		</clipPath>
		<linearGradient id="g1" x2="1" gradientUnits="userSpaceOnUse" gradientTransform="matrix(816.185,0,0,79.604,.52,328.96)">
			<stop offset="0" stop-color="#ec1ec6"/>
			<stop offset="1" stop-color="#1d8ff9"/>
		</linearGradient>
	</defs>
	<style>
		.s0 { fill: #ffffff } 
		.s1 { fill: url(#g1) } 
	</style>
	<g id="Clip-Path" clip-path="url(#cp1)">
		<g id="Layer">
			<path id="Layer" class="s0" d="m157.8 40.3c0-22 17.8-39.8 39.8-39.8 22 0 39.8 17.8 39.8 39.8v583.1c0 22-17.8 39.8-39.8 39.8-22 0-39.8-17.8-39.8-39.8z"/>
			<path id="Layer" class="s0" d="m590.2 40.1c0-22 17.8-39.8 39.8-39.8 22 0 39.8 17.8 39.8 39.8v578.1c0 22-17.8 39.8-39.8 39.8-22 0-39.8-17.8-39.8-39.8z"/>
			<path id="Layer" class="s1" d="m40.3 368.8c-22 0-39.8-17.9-39.8-39.8 0-22 17.8-39.8 39.8-39.8h736.6c22 0 39.8 17.8 39.8 39.8 0 21.9-17.8 39.8-39.8 39.8z"/>
			<path id="Layer" class="s0" d="m167.9 64.8c-13-17.7-9.3-42.6 8.4-55.7 17.6-13 42.5-9.3 55.6 8.4l425.4 574.9c13.1 17.6 9.4 42.6-8.3 55.6-17.7 13.1-42.6 9.4-55.7-8.3z"/>
			<path id="Layer" fill-rule="evenodd" class="s0" d="m1088.4 213c0-13.6 11-25.3 24.7-25.3 14.3 0 25.3 11.1 25.3 25.3v36.5c22.2-36.5 57.3-65.7 115.1-65.7 81.2 0 128.7 54.6 128.7 134.6v186.5c0 14.3-11 25.4-24.7 25.4-14.3 0-25.3-11.1-25.3-25.4v-174.2c0-62.4-33.9-101.4-93-101.4-57.9 0-100.8 42.2-100.8 105.3v170.3c0 14.3-10.4 25.3-24.7 25.3-14.3 0-25.3-11-25.3-25.3zm375.2 216.5v-1.3c0-70.9 58.5-108.6 143.6-108.6 42.9 0 73.5 5.9 103.4 14.3v-11.7c0-60.4-37.1-91.6-100.1-91.6-33.8 0-62.4 7.8-87.1 18.8-3.3 1.3-6.5 2-9.1 2-11.7 0-22.1-9.8-22.1-21.5 0-10.4 7.1-18.2 13.6-20.8 33.2-14.3 67-22.7 109.9-22.7 47.4 0 83.8 12.3 108.5 37 22.8 22.8 34.5 55.3 34.5 98.2v183.9c0 14.3-10.4 24.7-24.1 24.7-14.3 0-24-10.4-24-23.4v-30.5c-23.4 30.5-62.4 57.8-121.6 57.8-62.4 0-125.4-35.7-125.4-104.6zm247.6-26v-32.5c-24.7-7.2-57.8-14.3-98.8-14.3-63 0-98.1 27.3-98.1 69.5v1.3c0 42.3 39 67 84.5 67 61.7 0 112.4-37.7 112.4-91zm277.3 128.7h-2.6c-13.7 0-22.8-8.5-28.6-21.5l-126.1-284.7c-1.3-4.5-3.3-9.1-3.3-13.6 0-13 11.1-24.7 25.4-24.7 14.3 0 21.4 8.4 25.3 19.5l108.6 262.6 110.5-263.9c3.2-9.8 10.4-18.2 23.4-18.2 13.6 0 24.7 11 24.7 24.7 0 4.5-1.3 9.1-2.6 12.3l-126.8 286c-5.8 13-14.3 21.5-27.9 21.5zm244.4-446.6c0-16.2 13-26.6 29.2-26.6 16.9 0 29.9 10.4 29.9 26.6v8.5c0 15.6-13 26.6-29.9 26.6-16.2 0-29.2-11-29.2-26.6zm4.5 127.4c0-13.7 11.1-25.4 24.7-25.4 14.3 0 25.4 11.1 25.4 25.4v291.8c0 14.3-10.4 25.4-24.7 25.4-14.3 0-25.4-11.1-25.4-25.4zm145.4 147.6v-1.3c0-94.9 74.1-175.5 175.5-175.5 100.8 0 174.9 79.3 174.9 174.2v1.3c0 94.9-74.8 175.5-176.2 175.5-100.7 0-174.2-79.3-174.2-174.2zm299 0v-1.3c0-72.2-53.9-131.3-124.8-131.3-72.8 0-122.8 59.1-122.8 130v1.3c0 72.1 53.3 130.6 124.1 130.6 72.8 0 123.5-58.5 123.5-129.3z"/>
		</g>
	</g>
</svg>